<svg id="visual" viewBox="0 0 900 600" width="900" height="600" xmlns="http://www.w3.org/2000/svg" xmlns:xlink="http://www.w3.org/1999/xlink" version="1.1"><g transform="translate(434.2965394657934 296.2160600780536)"><path d="M124.1 -209.3C157.9 -195.5 180.3 -156.2 194 -117.1C207.8 -78 212.9 -39 222.4 5.5C231.9 50 245.9 100 225.5 127.7C205.2 155.4 150.6 160.9 107.3 173.9C64 186.9 32 207.4 -5.7 217.4C-43.5 227.3 -87 226.7 -114.1 204.3C-141.1 181.9 -151.8 137.8 -161.5 100.2C-171.3 62.5 -180.1 31.3 -190 -5.7C-199.9 -42.7 -210.8 -85.3 -200.3 -121.7C-189.8 -158.1 -157.9 -188.2 -121 -200.2C-84 -212.2 -42 -206.1 1.6 -208.8C45.2 -211.6 90.3 -223.1 124.1 -209.3" fill="none" stroke="#7075f4" stroke-width="99"></path></g></svg>