<svg width="1920" height="447" viewBox="0 0 1920 447" fill="none" xmlns="http://www.w3.org/2000/svg">
<g clip-path="url(#clip0_267_2)">
<path d="M0 615H1920V-465H0V615Z" fill="#484EE3"/>
<path d="M0 157H1920V0H0V157Z" fill="#7A78DF"/>
<path d="M1920 143L1874.3 146C1828.7 149 1737.3 155 1645.8 151.8C1554.3 148.7 1462.7 136.3 1371.2 134C1279.7 131.7 1188.3 139.3 1097 120.3C1005.7 101.3 914.3 55.7 823 45.3C731.7 35 640.3 60 548.8 89.7C457.3 119.3 365.7 153.7 274.2 154C182.7 154.3 91.2999 120.7 45.7 103.8L0 87V407H45.7C91.2999 407 182.7 407 274.2 407C365.7 407 457.3 407 548.8 407C640.3 407 731.7 407 823 407C914.3 407 1005.7 407 1097 407C1188.3 407 1279.7 407 1371.2 407C1462.7 407 1554.3 407 1645.8 407C1737.3 407 1828.7 407 1874.3 407H1920V143Z" fill="#ED7342"/>
<path d="M1920 164L1874.3 159.2C1828.7 154.3 1737.3 144.7 1645.8 144.7C1554.3 144.7 1462.7 154.3 1371.2 168.3C1279.7 182.3 1188.3 200.7 1097 210.8C1005.7 221 914.3 223 823 208.5C731.7 194 640.3 163 548.8 148C457.3 133 365.7 134 274.2 125.2C182.7 116.3 91.2999 97.7 45.7 88.3L0 79V407H45.7C91.2999 407 182.7 407 274.2 407C365.7 407 457.3 407 548.8 407C640.3 407 731.7 407 823 407C914.3 407 1005.7 407 1097 407C1188.3 407 1279.7 407 1371.2 407C1462.7 407 1554.3 407 1645.8 407C1737.3 407 1828.7 407 1874.3 407H1920V164Z" fill="#F54961"/>
<path d="M1920 198L1874.3 207.2C1828.7 216.3 1737.3 234.7 1645.8 234.8C1554.3 235 1462.7 217 1371.2 208.8C1279.7 200.7 1188.3 202.3 1097 192C1005.7 181.7 914.3 159.3 823 157.5C731.7 155.7 640.3 174.3 548.8 189C457.3 203.7 365.7 214.3 274.2 218C182.7 221.7 91.2999 218.3 45.7 216.7L0 215V407H45.7C91.2999 407 182.7 407 274.2 407C365.7 407 457.3 407 548.8 407C640.3 407 731.7 407 823 407C914.3 407 1005.7 407 1097 407C1188.3 407 1279.7 407 1371.2 407C1462.7 407 1554.3 407 1645.8 407C1737.3 407 1828.7 407 1874.3 407H1920V198Z" fill="#E7248C"/>
<path d="M1920 297.609L1874.3 286.989C1828.7 276.368 1737.3 255.126 1645.8 255.392C1554.3 255.746 1462.7 277.518 1371.2 283.891C1279.7 290.263 1188.3 281.059 1097 277.253C1005.7 273.447 914.3 274.863 823 277.695C731.7 280.528 640.3 284.599 548.8 286.723C457.3 288.759 365.7 288.759 274.2 279.466C182.7 270.172 91.2999 251.586 45.7 242.293L0 233V387H45.7C91.2999 387 182.7 387 274.2 387C365.7 387 457.3 387 548.8 387C640.3 387 731.7 387 823 387C914.3 387 1005.7 387 1097 387C1188.3 387 1279.7 387 1371.2 387C1462.7 387 1554.3 387 1645.8 387C1737.3 387 1828.7 387 1874.3 387H1920V297.609Z" fill="#B92FBC"/>
<path d="M1920 250L1874.3 258.035C1828.7 266.282 1737.3 282.352 1645.8 291.656C1554.3 300.748 1462.7 302.863 1371.2 313.435C1279.7 324.008 1188.3 343.038 1097 344.73C1005.7 346.633 914.3 330.985 823 319.144C731.7 307.092 640.3 298.634 548.8 315.973C457.3 333.1 365.7 376.236 274.2 375.813C182.7 375.39 91.2999 331.831 45.7 309.84L0 288.061V527H45.7C91.2999 527 182.7 527 274.2 527C365.7 527 457.3 527 548.8 527C640.3 527 731.7 527 823 527C914.3 527 1005.7 527 1097 527C1188.3 527 1279.7 527 1371.2 527C1462.7 527 1554.3 527 1645.8 527C1737.3 527 1828.7 527 1874.3 527H1920V250Z" fill="#FFFAF0"/>
</g>
<defs>
<clipPath id="clip0_267_2">
<rect width="1920" height="447" fill="white" transform="translate(1920 447) rotate(-180)"/>
</clipPath>
</defs>
</svg>
