<svg width="1920" height="791" viewBox="0 0 1920 791" fill="none" xmlns="http://www.w3.org/2000/svg">
<g clip-path="url(#clip0_223_16)">
<path d="M1920 43H0V1123H1920V43Z" fill="#7A78DF"/>
<path d="M1920 -2H0V467H1920V-2Z" fill="#FFFAF0"/>
<path d="M-10.0431 171.391L37.2382 180.949C84.4154 190.489 178.978 209.604 274.524 222.354C370.06 235.174 466.589 241.561 562.049 254.935C657.509 268.31 751.919 288.534 848.767 290.294C945.614 292.055 1045.11 275.384 1141.13 283.109C1237.15 290.903 1329.9 323.193 1422.3 358.76C1514.71 394.257 1606.77 433.1 1701.98 448.278C1797.19 463.455 1895.54 455.107 1944.62 450.847L1993.79 446.673L1962.92 670.674L1915.35 663.197C1867.89 655.737 1772.75 640.784 1677.51 625.814C1582.27 610.844 1486.93 595.858 1391.69 580.889C1296.45 565.919 1201.31 550.966 1106.28 536.029C1011.25 521.092 916.111 506.138 821.079 491.202C726.047 476.265 630.911 461.311 535.671 446.342C440.431 431.372 345.087 416.386 249.847 401.416C154.606 386.447 59.4705 371.493 12.0066 364.033L-35.5614 356.556L-10.0431 171.391Z" fill="#DF7941"/>
<path d="M-12.1074 186.372L35.9182 190.528C83.8493 194.599 179.901 202.911 275.141 217.88C370.381 232.85 464.809 254.477 558.715 279.132C652.62 303.787 746.002 331.47 840.071 353.394C934.13 375.388 1029.08 391.725 1125.49 396.63C1221.9 401.536 1320 395.043 1416.67 399.636C1513.34 404.228 1608.58 419.906 1704.66 428.788C1800.75 437.6 1897.66 439.686 1946.02 440.643L1994.48 441.686L1962.92 670.676L1915.35 663.199C1867.89 655.739 1772.75 640.785 1677.51 625.816C1582.27 610.846 1486.93 595.86 1391.69 580.89C1296.45 565.921 1201.31 550.967 1106.28 536.03C1011.25 521.093 916.111 506.14 821.079 491.203C726.047 476.266 630.911 461.313 535.671 446.343C440.431 431.373 345.087 416.387 249.847 401.418C154.606 386.448 59.4705 371.495 12.0066 364.034L-35.5614 356.558L-12.1074 186.372Z" fill="#E1814B"/>
<path d="M-15.3772 210.098L31.3149 223.93C77.9124 237.677 171.297 265.342 266.527 280.381C361.748 295.489 458.806 298.04 554.827 307.344C650.838 316.718 745.822 332.777 841.834 340.598C937.847 348.42 1035.12 347.898 1130.32 361.591C1225.52 375.285 1318.89 403.088 1412.73 428.213C1506.57 453.338 1600.9 475.647 1695.79 493.173C1790.68 510.698 1886.14 523.303 1933.75 529.658L1981.48 535.96L1962.92 670.674L1915.35 663.197C1867.89 655.737 1772.75 640.784 1677.51 625.814C1582.27 610.844 1486.93 595.858 1391.69 580.889C1296.45 565.919 1201.31 550.966 1106.28 536.029C1011.25 521.092 916.111 506.138 821.079 491.202C726.047 476.265 630.911 461.311 535.671 446.342C440.431 431.372 345.087 416.386 249.847 401.416C154.607 386.447 59.4707 371.493 12.0068 364.033L-35.5612 356.556L-15.3772 210.098Z" fill="#F57255"/>
<path d="M1949.04 771.359L1901.76 761.801C1854.58 752.261 1760.02 733.146 1664.48 720.396C1568.94 707.576 1472.41 701.189 1376.95 687.815C1281.49 674.44 1187.08 654.216 1090.23 652.456C993.386 650.695 893.892 667.366 797.866 659.641C701.849 651.847 609.103 619.557 516.701 583.99C424.29 548.493 332.234 509.65 237.022 494.472C141.811 479.295 43.4637 487.643 -5.61536 491.903L-54.7889 496.077L-23.9185 272.076L23.6495 279.553C71.1134 287.013 166.249 301.966 261.489 316.936C356.729 331.906 452.074 346.892 547.314 361.861C642.554 376.831 737.69 391.784 832.722 406.721C927.753 421.658 1022.89 436.612 1117.92 451.548C1212.95 466.485 1308.09 481.439 1403.33 496.408C1498.57 511.378 1593.91 526.364 1689.15 541.334C1784.39 556.303 1879.53 571.257 1926.99 578.717L1974.56 586.194L1949.04 771.359Z" fill="#FA7268"/>
<path d="M1954.38 732.652L1907.69 718.82C1861.09 705.073 1767.7 677.408 1672.47 662.369C1577.25 647.261 1480.19 644.71 1384.17 635.406C1288.16 626.032 1193.18 609.973 1097.17 602.152C1001.15 594.33 903.885 594.852 808.682 581.159C713.478 567.465 620.113 539.662 526.273 514.537C432.432 489.412 338.097 467.103 243.209 449.577C148.322 432.052 52.8619 419.447 5.24567 413.092L-42.4841 406.79L-23.9186 272.076L23.6493 279.553C71.1132 287.013 166.249 301.966 261.489 316.936C356.729 331.906 452.074 346.892 547.314 361.861C642.554 376.831 737.69 391.784 832.721 406.721C927.753 421.658 1022.89 436.612 1117.92 451.548C1212.95 466.485 1308.09 481.439 1403.33 496.408C1498.57 511.378 1593.91 526.364 1689.15 541.334C1784.39 556.303 1879.53 571.257 1926.99 578.717L1974.56 586.194L1954.38 732.652Z" fill="#F57255"/>
<path d="M-25.6599 284.711L23.0505 283.898C71.6569 283.069 169.078 281.442 264.289 296.619C359.491 311.865 452.493 343.845 547.048 363.789C641.602 383.733 737.729 391.501 833.17 403.468C928.611 415.434 1023.59 431.493 1118.32 448.64C1213.05 465.788 1307.75 483.919 1402.76 500.547C1497.78 517.105 1593.12 532.091 1689.36 539.807C1785.6 547.523 1882.74 547.969 1931.2 548.176L1979.77 548.399L1962.92 670.675L1915.35 663.198C1867.89 655.738 1772.75 640.785 1677.51 625.815C1582.27 610.845 1486.93 595.859 1391.69 580.89C1296.45 565.92 1201.31 550.967 1106.28 536.03C1011.25 521.093 916.111 506.139 821.079 491.202C726.047 476.265 630.911 461.312 535.671 446.343C440.431 431.373 345.087 416.387 249.847 401.417C154.607 386.447 59.4706 371.494 12.0067 364.034L-35.5613 356.557L-25.6599 284.711Z" fill="#F1724C"/>
<path d="M-22.8462 264.295L24.3612 274.388C71.455 284.534 165.87 304.72 260.692 322.719C355.524 340.649 450.774 356.324 545.539 374.736C640.305 393.148 734.587 414.298 829.543 429.786C924.489 445.343 1020.33 455.201 1115.89 466.282C1211.46 477.295 1306.98 489.494 1401.44 510.109C1495.91 530.656 1589.32 559.688 1684.58 574.52C1779.84 589.352 1876.93 590.122 1925.38 590.421L1973.93 590.806L1962.92 670.675L1915.35 663.199C1867.89 655.738 1772.75 640.785 1677.51 625.815C1582.27 610.846 1486.93 595.86 1391.69 580.89C1296.45 565.92 1201.31 550.967 1106.28 536.03C1011.25 521.093 916.111 506.14 821.079 491.203C726.047 476.266 630.911 461.313 535.671 446.343C440.431 431.373 345.087 416.387 249.847 401.418C154.607 386.448 59.4706 371.495 12.0067 364.034L-35.5613 356.558L-22.8462 264.295Z" fill="#ED7342"/>
</g>
<defs>
<clipPath id="clip0_223_16">
<rect width="1920" height="791" fill="white"/>
</clipPath>
</defs>
</svg>
