<svg width="1920" height="447" viewBox="0 0 1920 447" fill="none" xmlns="http://www.w3.org/2000/svg">
<g clip-path="url(#clip0_240_18)">
<path d="M1920 -168H0V912H1920V-168Z" fill="#484EE3"/>
<path d="M1920 290H0V447H1920V290Z" fill="#ED7342"/>
<path d="M0 304L45.7 301C91.3 298 182.7 292 274.2 295.2C365.7 298.3 457.3 310.7 548.8 313C640.3 315.3 731.7 307.7 823 326.7C914.3 345.7 1005.7 391.3 1097 401.7C1188.3 412 1279.7 387 1371.2 357.3C1462.7 327.7 1554.3 293.3 1645.8 293C1737.3 292.7 1828.7 326.3 1874.3 343.2L1920 360V40H1874.3C1828.7 40 1737.3 40 1645.8 40C1554.3 40 1462.7 40 1371.2 40C1279.7 40 1188.3 40 1097 40C1005.7 40 914.3 40 823 40C731.7 40 640.3 40 548.8 40C457.3 40 365.7 40 274.2 40C182.7 40 91.3 40 45.7 40H0V304Z" fill="#ED7342"/>
<path d="M0 283L45.7 287.8C91.3 292.7 182.7 302.3 274.2 302.3C365.7 302.3 457.3 292.7 548.8 278.7C640.3 264.7 731.7 246.3 823 236.2C914.3 226 1005.7 224 1097 238.5C1188.3 253 1279.7 284 1371.2 299C1462.7 314 1554.3 313 1645.8 321.8C1737.3 330.7 1828.7 349.3 1874.3 358.7L1920 368V40H1874.3C1828.7 40 1737.3 40 1645.8 40C1554.3 40 1462.7 40 1371.2 40C1279.7 40 1188.3 40 1097 40C1005.7 40 914.3 40 823 40C731.7 40 640.3 40 548.8 40C457.3 40 365.7 40 274.2 40C182.7 40 91.3 40 45.7 40H0V283Z" fill="#F54961"/>
<path d="M0 249L45.7 239.8C91.3 230.7 182.7 212.3 274.2 212.2C365.7 212 457.3 230 548.8 238.2C640.3 246.3 731.7 244.7 823 255C914.3 265.3 1005.7 287.7 1097 289.5C1188.3 291.3 1279.7 272.7 1371.2 258C1462.7 243.3 1554.3 232.7 1645.8 229C1737.3 225.3 1828.7 228.7 1874.3 230.3L1920 232V40H1874.3C1828.7 40 1737.3 40 1645.8 40C1554.3 40 1462.7 40 1371.2 40C1279.7 40 1188.3 40 1097 40C1005.7 40 914.3 40 823 40C731.7 40 640.3 40 548.8 40C457.3 40 365.7 40 274.2 40C182.7 40 91.3 40 45.7 40H0V249Z" fill="#E7248C"/>
<path d="M0 149.391L45.7 160.011C91.3 170.632 182.7 191.874 274.2 191.608C365.7 191.254 457.3 169.482 548.8 163.109C640.3 156.737 731.7 165.941 823 169.747C914.3 173.553 1005.7 172.137 1097 169.305C1188.3 166.472 1279.7 162.401 1371.2 160.277C1462.7 158.241 1554.3 158.241 1645.8 167.534C1737.3 176.828 1828.7 195.414 1874.3 204.707L1920 214V60H1874.3C1828.7 60 1737.3 60 1645.8 60C1554.3 60 1462.7 60 1371.2 60C1279.7 60 1188.3 60 1097 60C1005.7 60 914.3 60 823 60C731.7 60 640.3 60 548.8 60C457.3 60 365.7 60 274.2 60C182.7 60 91.3 60 45.7 60H0V149.391Z" fill="#B92FBC"/>
<path d="M0 197L45.7 188.965C91.3 180.718 182.7 164.648 274.2 155.344C365.7 146.252 457.3 144.137 548.8 133.565C640.3 122.992 731.7 103.962 823 102.27C914.3 100.367 1005.7 116.015 1097 127.856C1188.3 139.908 1279.7 148.366 1371.2 131.027C1462.7 113.9 1554.3 70.7641 1645.8 71.187C1737.3 71.6099 1828.7 115.169 1874.3 137.16L1920 158.939V-80H1874.3C1828.7 -80 1737.3 -80 1645.8 -80C1554.3 -80 1462.7 -80 1371.2 -80C1279.7 -80 1188.3 -80 1097 -80C1005.7 -80 914.3 -80 823 -80C731.7 -80 640.3 -80 548.8 -80C457.3 -80 365.7 -80 274.2 -80C182.7 -80 91.3 -80 45.7 -80H0V197Z" fill="#272957"/>
</g>
<defs>
<clipPath id="clip0_240_18">
<rect width="1920" height="447" fill="white"/>
</clipPath>
</defs>
</svg>
