<svg width="1920" height="345" viewBox="0 0 1920 345" fill="none" xmlns="http://www.w3.org/2000/svg">
<g clip-path="url(#clip0_264_7)">
<path d="M0 0L53.3 3.29999C106.7 6.69999 213.3 13.3 320 14.5C426.7 15.7 533.3 11.3 640 7.29999C746.7 3.29999 853.3 -0.299988 960 6.70001C1066.7 13.7 1173.3 31.3 1280 31C1386.7 30.7 1493.3 12.3 1600 12.5C1706.7 12.7 1813.3 31.3 1866.7 40.7L1920 50V346H1866.7C1813.3 346 1706.7 346 1600 346C1493.3 346 1386.7 346 1280 346C1173.3 346 1066.7 346 960 346C853.3 346 746.7 346 640 346C533.3 346 426.7 346 320 346C213.3 346 106.7 346 53.3 346H0V0Z" fill="#767AF3"/>
<path d="M0 81L53.3 81.3C106.7 81.7 213.3 82.3 320 90.8C426.7 99.3 533.3 115.7 640 117.5C746.7 119.3 853.3 106.7 960 103C1066.7 99.3 1173.3 104.7 1280 104C1386.7 103.3 1493.3 96.7 1600 90.8C1706.7 85 1813.3 80 1866.7 77.5L1920 75V346H1866.7C1813.3 346 1706.7 346 1600 346C1493.3 346 1386.7 346 1280 346C1173.3 346 1066.7 346 960 346C853.3 346 746.7 346 640 346C533.3 346 426.7 346 320 346C213.3 346 106.7 346 53.3 346H0V81Z" fill="#676BEE"/>
<path d="M0 171L53.3 170.3C106.7 169.7 213.3 168.3 320 174C426.7 179.7 533.3 192.3 640 198.8C746.7 205.3 853.3 205.7 960 199.8C1066.7 194 1173.3 182 1280 174.3C1386.7 166.7 1493.3 163.3 1600 167.5C1706.7 171.7 1813.3 183.3 1866.7 189.2L1920 195V346H1866.7C1813.3 346 1706.7 346 1600 346C1493.3 346 1386.7 346 1280 346C1173.3 346 1066.7 346 960 346C853.3 346 746.7 346 640 346C533.3 346 426.7 346 320 346C213.3 346 106.7 346 53.3 346H0V171Z" fill="#585DE8"/>
<path d="M0 254L53.3 256.5C106.7 259 213.3 264 320 267.7C426.7 271.3 533.3 273.7 640 273.8C746.7 274 853.3 272 960 266.8C1066.7 261.7 1173.3 253.3 1280 251.2C1386.7 249 1493.3 253 1600 253.7C1706.7 254.3 1813.3 251.7 1866.7 250.3L1920 249V346H1866.7C1813.3 346 1706.7 346 1600 346C1493.3 346 1386.7 346 1280 346C1173.3 346 1066.7 346 960 346C853.3 346 746.7 346 640 346C533.3 346 426.7 346 320 346C213.3 346 106.7 346 53.3 346H0V254Z" fill="#484EE3"/>
</g>
<defs>
<clipPath id="clip0_264_7">
<rect width="1920" height="345" fill="white"/>
</clipPath>
</defs>
</svg>
