<svg width="1920" height="362" viewBox="0 0 1920 362" fill="none" xmlns="http://www.w3.org/2000/svg">
<g clip-path="url(#clip0_286_2)">
<rect width="1920" height="106" fill="#484EE3"/>
<path d="M0 41L53.3 42.2C106.7 43.3 213.3 45.7 320 48.7C426.7 51.7 533.3 55.3 640 58.7C746.7 62 853.3 65 960 67.2C1066.7 69.3 1173.3 70.7 1280 69.2C1386.7 67.7 1493.3 63.3 1600 60.5C1706.7 57.7 1813.3 56.3 1866.7 55.7L1920 55V363H1866.7C1813.3 363 1706.7 363 1600 363C1493.3 363 1386.7 363 1280 363C1173.3 363 1066.7 363 960 363C853.3 363 746.7 363 640 363C533.3 363 426.7 363 320 363C213.3 363 106.7 363 53.3 363H0V41Z" fill="#B149C8"/>
<path d="M0 88L53.3 91.5C106.7 95 213.3 102 320 102.2C426.7 102.3 533.3 95.7 640 94.5C746.7 93.3 853.3 97.7 960 97.5C1066.7 97.3 1173.3 92.7 1280 90.5C1386.7 88.3 1493.3 88.7 1600 88C1706.7 87.3 1813.3 85.7 1866.7 84.8L1920 84V363H1866.7C1813.3 363 1706.7 363 1600 363C1493.3 363 1386.7 363 1280 363C1173.3 363 1066.7 363 960 363C853.3 363 746.7 363 640 363C533.3 363 426.7 363 320 363C213.3 363 106.7 363 53.3 363H0V88Z" fill="#E158AE"/>
<path d="M0 135L53.3 139.2C106.7 143.3 213.3 151.7 320 150.7C426.7 149.7 533.3 139.3 640 134.5C746.7 129.7 853.3 130.3 960 130.3C1066.7 130.3 1173.3 129.7 1280 134C1386.7 138.3 1493.3 147.7 1600 149.5C1706.7 151.3 1813.3 145.7 1866.7 142.8L1920 140V363H1866.7C1813.3 363 1706.7 363 1600 363C1493.3 363 1386.7 363 1280 363C1173.3 363 1066.7 363 960 363C853.3 363 746.7 363 640 363C533.3 363 426.7 363 320 363C213.3 363 106.7 363 53.3 363H0V135Z" fill="#F8779B"/>
<path d="M0 176L53.3 177C106.7 178 213.3 180 320 183.3C426.7 186.7 533.3 191.3 640 194.3C746.7 197.3 853.3 198.7 960 199.5C1066.7 200.3 1173.3 200.7 1280 198.3C1386.7 196 1493.3 191 1600 188.7C1706.7 186.3 1813.3 186.7 1866.7 186.8L1920 187V363H1866.7C1813.3 363 1706.7 363 1600 363C1493.3 363 1386.7 363 1280 363C1173.3 363 1066.7 363 960 363C853.3 363 746.7 363 640 363C533.3 363 426.7 363 320 363C213.3 363 106.7 363 53.3 363H0V176Z" fill="#FF9B97"/>
<path d="M0 222L53.3 223.2C106.7 224.3 213.3 226.7 320 225C426.7 223.3 533.3 217.7 640 216.5C746.7 215.3 853.3 218.7 960 220C1066.7 221.3 1173.3 220.7 1280 219.3C1386.7 218 1493.3 216 1600 217.8C1706.7 219.7 1813.3 225.3 1866.7 228.2L1920 231V363H1866.7C1813.3 363 1706.7 363 1600 363C1493.3 363 1386.7 363 1280 363C1173.3 363 1066.7 363 960 363C853.3 363 746.7 363 640 363C533.3 363 426.7 363 320 363C213.3 363 106.7 363 53.3 363H0V222Z" fill="#FEBEA5"/>
<path d="M0 282L53.3 278.5C106.7 275 213.3 268 320 267.3C426.7 266.7 533.3 272.3 640 276C746.7 279.7 853.3 281.3 960 277.8C1066.7 274.3 1173.3 265.7 1280 261.8C1386.7 258 1493.3 259 1600 260.3C1706.7 261.7 1813.3 263.3 1866.7 264.2L1920 265V363H1866.7C1813.3 363 1706.7 363 1600 363C1493.3 363 1386.7 363 1280 363C1173.3 363 1066.7 363 960 363C853.3 363 746.7 363 640 363C533.3 363 426.7 363 320 363C213.3 363 106.7 363 53.3 363H0V282Z" fill="#FBDEC5"/>
<path d="M0 309.999L53.3 308.499C106.7 306.999 213.3 303.999 320 305.299C426.7 306.699 533.3 312.299 640 313.299C746.7 314.299 853.3 310.699 960 311.999C1066.7 313.299 1173.3 319.699 1280 320.199C1386.7 320.699 1493.3 315.299 1600 313.699C1706.7 311.999 1813.3 313.999 1866.7 314.999L1920 315.999V362.999H1866.7C1813.3 362.999 1706.7 362.999 1600 362.999C1493.3 362.999 1386.7 362.999 1280 362.999C1173.3 362.999 1066.7 362.999 960 362.999C853.3 362.999 746.7 362.999 640 362.999C533.3 362.999 426.7 362.999 320 362.999C213.3 362.999 106.7 362.999 53.3 362.999H0V309.999Z" fill="#FFFAF0"/>
</g>
<defs>
<clipPath id="clip0_286_2">
<rect width="1920" height="362" fill="white"/>
</clipPath>
</defs>
</svg>
