<svg width="1920" height="718" viewBox="0 0 1920 718" fill="none" xmlns="http://www.w3.org/2000/svg">
<g clip-path="url(#clip0_240_26)">
<path d="M1920 -30H0V1050H1920V-30Z" fill="#484EE3"/>
<path d="M1920 0H-2V407H1920V0Z" fill="#ED7342"/>
<path d="M-10.0431 98.3914L37.2382 107.949C84.4154 117.489 178.978 136.604 274.524 149.354C370.06 162.174 466.589 168.561 562.049 181.935C657.509 195.31 751.919 215.534 848.767 217.294C945.614 219.055 1045.11 202.384 1141.13 210.109C1237.15 217.903 1329.9 250.193 1422.3 285.76C1514.71 321.257 1606.77 360.1 1701.98 375.278C1797.19 390.455 1895.54 382.107 1944.62 377.847L1993.79 373.673L1962.92 597.674L1915.35 590.197C1867.89 582.737 1772.75 567.784 1677.51 552.814C1582.27 537.844 1486.93 522.858 1391.69 507.889C1296.45 492.919 1201.31 477.966 1106.28 463.029C1011.25 448.092 916.111 433.138 821.079 418.202C726.047 403.265 630.911 388.311 535.671 373.342C440.431 358.372 345.087 343.386 249.847 328.416C154.606 313.447 59.4705 298.493 12.0066 291.033L-35.5614 283.556L-10.0431 98.3914Z" fill="#FA7268"/>
<path d="M-12.1074 113.372L35.9182 117.528C83.8493 121.599 179.901 129.911 275.141 144.88C370.381 159.85 464.809 181.477 558.715 206.132C652.62 230.787 746.002 258.47 840.071 280.394C934.13 302.388 1029.08 318.725 1125.49 323.63C1221.9 328.536 1320 322.043 1416.67 326.636C1513.34 331.228 1608.58 346.906 1704.66 355.788C1800.75 364.6 1897.66 366.686 1946.02 367.643L1994.48 368.686L1962.92 597.676L1915.35 590.199C1867.89 582.739 1772.75 567.785 1677.51 552.816C1582.27 537.846 1486.93 522.86 1391.69 507.89C1296.45 492.921 1201.31 477.967 1106.28 463.03C1011.25 448.093 916.111 433.14 821.079 418.203C726.047 403.266 630.911 388.313 535.671 373.343C440.431 358.373 345.087 343.387 249.847 328.418C154.606 313.448 59.4705 298.495 12.0066 291.034L-35.5614 283.558L-12.1074 113.372Z" fill="#F8725F"/>
<path d="M-15.3772 137.098L31.3149 150.93C77.9124 164.677 171.297 192.342 266.527 207.381C361.748 222.489 458.806 225.04 554.827 234.344C650.838 243.718 745.822 259.777 841.834 267.598C937.847 275.42 1035.12 274.898 1130.32 288.591C1225.52 302.285 1318.89 330.088 1412.73 355.213C1506.57 380.338 1600.9 402.647 1695.79 420.173C1790.68 437.698 1886.14 450.303 1933.75 456.658L1981.48 462.96L1962.92 597.674L1915.35 590.197C1867.89 582.737 1772.75 567.784 1677.51 552.814C1582.27 537.844 1486.93 522.858 1391.69 507.889C1296.45 492.919 1201.31 477.966 1106.28 463.029C1011.25 448.092 916.111 433.138 821.079 418.202C726.047 403.265 630.911 388.311 535.671 373.342C440.431 358.372 345.087 343.386 249.847 328.416C154.607 313.447 59.4707 298.493 12.0068 291.033L-35.5612 283.556L-15.3772 137.098Z" fill="#F57255"/>
<path d="M1949.04 698.359L1901.76 688.801C1854.58 679.261 1760.02 660.146 1664.48 647.396C1568.94 634.576 1472.41 628.189 1376.95 614.815C1281.49 601.44 1187.08 581.216 1090.23 579.456C993.386 577.695 893.892 594.366 797.866 586.641C701.849 578.847 609.103 546.557 516.701 510.99C424.29 475.493 332.234 436.65 237.022 421.472C141.811 406.295 43.4637 414.643 -5.61536 418.903L-54.7889 423.077L-23.9185 199.076L23.6495 206.553C71.1134 214.013 166.249 228.966 261.489 243.936C356.729 258.906 452.074 273.892 547.314 288.861C642.554 303.831 737.69 318.784 832.722 333.721C927.753 348.658 1022.89 363.612 1117.92 378.548C1212.95 393.485 1308.09 408.439 1403.33 423.408C1498.57 438.378 1593.91 453.364 1689.15 468.334C1784.39 483.303 1879.53 498.257 1926.99 505.717L1974.56 513.194L1949.04 698.359Z" fill="#FF6357"/>
<path d="M1954.38 659.652L1907.69 645.82C1861.09 632.073 1767.7 604.408 1672.47 589.369C1577.25 574.261 1480.19 571.71 1384.17 562.406C1288.16 553.032 1193.18 536.973 1097.17 529.152C1001.15 521.33 903.885 521.852 808.682 508.159C713.478 494.465 620.113 466.662 526.273 441.537C432.432 416.412 338.097 394.103 243.209 376.577C148.322 359.052 52.8619 346.447 5.24567 340.092L-42.4841 333.79L-23.9186 199.076L23.6493 206.553C71.1132 214.013 166.249 228.966 261.489 243.936C356.729 258.906 452.074 273.892 547.314 288.861C642.554 303.831 737.69 318.784 832.721 333.721C927.753 348.658 1022.89 363.612 1117.92 378.548C1212.95 393.485 1308.09 408.439 1403.33 423.408C1498.57 438.378 1593.91 453.364 1689.15 468.334C1784.39 483.303 1879.53 498.257 1926.99 505.717L1974.56 513.194L1954.38 659.652Z" fill="#FF6745"/>
<path d="M-25.6599 211.711L23.0505 210.898C71.6569 210.069 169.078 208.442 264.289 223.619C359.491 238.865 452.493 270.845 547.048 290.789C641.602 310.733 737.729 318.501 833.17 330.468C928.611 342.434 1023.59 358.493 1118.32 375.64C1213.05 392.788 1307.75 410.919 1402.76 427.547C1497.78 444.105 1593.12 459.091 1689.36 466.807C1785.6 474.523 1882.74 474.969 1931.2 475.176L1979.77 475.399L1962.92 597.675L1915.35 590.198C1867.89 582.738 1772.75 567.785 1677.51 552.815C1582.27 537.845 1486.93 522.859 1391.69 507.89C1296.45 492.92 1201.31 477.967 1106.28 463.03C1011.25 448.093 916.111 433.139 821.079 418.202C726.047 403.265 630.911 388.312 535.671 373.343C440.431 358.373 345.087 343.387 249.847 328.417C154.607 313.447 59.4706 298.494 12.0067 291.034L-35.5613 283.557L-25.6599 211.711Z" fill="#F1724C"/>
<path d="M-13.4673 123.238L33.4741 135.261C80.295 147.388 174.178 171.434 268.692 191.668C363.224 211.782 458.403 227.964 552.818 248.916C647.234 269.868 740.886 295.589 835.786 311.483C930.67 327.496 1027.03 333.596 1122.98 341.833C1218.95 349.951 1314.75 360.119 1408.64 384.899C1502.54 409.559 1594.52 448.952 1689.79 463.683C1785.07 478.413 1883.6 468.72 1932.78 463.738L1982.04 458.891L1962.92 597.675L1915.35 590.199C1867.89 582.738 1772.75 567.785 1677.51 552.815C1582.27 537.846 1486.93 522.86 1391.69 507.89C1296.45 492.92 1201.31 477.967 1106.28 463.03C1011.25 448.093 916.11 433.14 821.079 418.203C726.047 403.266 630.911 388.312 535.671 373.343C440.431 358.373 345.086 343.387 249.846 328.417C154.606 313.448 59.4704 298.494 12.0065 291.034L-35.5615 283.557L-13.4673 123.238Z" fill="#ED7342"/>
</g>
<defs>
<clipPath id="clip0_240_26">
<rect width="1920" height="718" fill="white"/>
</clipPath>
</defs>
</svg>
